<svg width="44" height="44" viewBox="0 0 44 44" fill="none" xmlns="http://www.w3.org/2000/svg">
<path d="M36.1016 43.4844C34.5781 43.4844 33.3672 42.2734 33.3672 40.75C33.3672 39.2266 34.5781 38.0156 36.1016 38.0156C37.625 38.0156 38.8359 39.2266 38.8359 40.75C38.8359 42.2734 37.5859 43.4844 36.1016 43.4844ZM14.2266 43.4844C12.7031 43.4844 11.4922 42.2734 11.4922 40.75C11.4922 39.2266 12.7031 38.0156 14.2266 38.0156C15.75 38.0156 16.9609 39.2266 16.9609 40.75C16.9609 42.2734 15.7109 43.4844 14.2266 43.4844ZM13.7969 35.6719C11.7266 35.6719 9.92969 34.0312 9.69531 31.9609L7.03906 13.2891L5.51562 4.57812C5.39844 3.64062 4.57812 2.85938 3.67969 2.85938H1.6875C1.02344 2.85938 0.515625 2.35156 0.515625 1.6875C0.515625 1.02344 1.02344 0.515625 1.6875 0.515625H3.67969C5.75 0.515625 7.58594 2.15625 7.85937 4.22656L9.38281 12.9375L12.0391 31.6484C12.1172 32.5469 12.9375 33.3281 13.7969 33.3281H39.1875C39.8516 33.3281 40.3594 33.8359 40.3594 34.5C40.3594 35.1641 39.8516 35.6719 39.1875 35.6719H13.7969ZM15.75 29.4219C15.125 29.4219 14.6172 28.9531 14.5781 28.3281C14.5391 28.0156 14.6562 27.7031 14.8516 27.4688C15.0469 27.2344 15.3594 27.0781 15.6328 27.0781L36.8437 25.5156C37.7812 25.5156 38.6016 24.7734 38.7188 23.875L41.1797 9.8125C41.2578 9.14844 41.0625 8.44531 40.6719 8.01563C40.3984 7.70313 40.0469 7.54688 39.6172 7.54688H12.625C11.9609 7.54688 11.4531 7.03906 11.4531 6.375C11.4531 5.71094 11.9609 5.20312 12.625 5.20312H39.6953C40.7891 5.20312 41.7656 5.67188 42.5078 6.45313C43.3281 7.39063 43.7187 8.75781 43.5625 10.125L41.1016 24.1875C40.8672 26.2188 39.0312 27.8203 37 27.8203L15.9062 29.3828C15.8281 29.4219 15.7891 29.4219 15.75 29.4219Z" fill="black"/>
</svg>
