<svg width="50" height="46" viewBox="0 0 50 46" fill="none" xmlns="http://www.w3.org/2000/svg">
<path d="M35.9391 3.57344C34.4078 3.57344 31.6375 4.30625 27.1453 8.73125L24.9188 10.9234L22.725 8.69531C19.6063 5.52656 16.2875 3.55781 14.0641 3.55781C11.0656 3.55781 8.70157 4.58281 6.39688 6.88281C4.22501 9.04844 3.02813 11.9297 3.02813 14.9938C3.02657 18.0594 4.22188 20.9422 6.41719 23.1328C6.59532 23.3141 16.0359 33.4984 23.9453 42.0344C24.3172 42.3891 24.7438 42.4406 24.9703 42.4406C25.1938 42.4406 25.6141 42.3906 25.9859 42.0453C27.9125 39.9016 41.8828 24.3688 43.5063 22.7469C45.6797 20.5781 46.8766 17.6953 46.8766 14.6313C46.8766 11.5672 45.6797 8.6875 43.5047 6.51875C41.3906 4.40625 38.9156 3.57344 35.9391 3.57344ZM35.9391 0.448439C39.6766 0.448439 42.9703 1.56563 45.7125 4.30625C51.4297 10.0078 51.4297 19.2531 45.7125 24.9578C44.0797 26.5906 28.2391 44.2125 28.2391 44.2125C27.3359 45.1156 26.1516 45.5641 24.9688 45.5641C23.7859 45.5641 22.6063 45.1156 21.7016 44.2125C21.7016 44.2125 4.37344 25.5094 4.18907 25.3234C-1.52499 19.6172 -1.52499 10.3703 4.18907 4.66875C7.02657 1.83594 10.1969 0.431252 14.0625 0.431252C17.7563 0.431252 21.875 3.37656 24.9516 6.50156C28.125 3.37656 32.1156 0.448439 35.9375 0.448439H35.9391Z" fill="black"/>
</svg>
